# xmcd
#
# Track frame offsets: 
#        150
#        13679
#        23884
#        33222
#        44297
#        57141
#        67670
#        81574
#        101500
#        110606
#        123728
#        134473
#        147180
#        170778
#        184291
#        196413
#        211436
#        229011
#
# Disc length: 3256 seconds
#
# Revision: 0
# Processed by: cddbd v1.5.2PL0 Copyright (c) Steve Scherf et al.
# Submitted via: ExactAudioCopy v0.99pb4
#
DISCID=040cb612
DTITLE=Rudi and Teddy Nelson - 18 Teddy Topper
DYEAR=2003
DGENRE=Country
TTITLE0=Dans-Dans
TTITLE1=Diggy Liggy
TTITLE2=Ola Med Sjøden
TTITLE3=Deng Meg, Heng Med
TTITLE4=Jeg Reiste Ut En Gang
TTITLE5=Taske-Jenny
TTITLE6=Bonde I Fra Hamlagrø
TTITLE7=En Gang Vil Jeg Bli Stjerne
TTITLE8=I Lusekoft Og Sixpence
TTITLE9=Stjerne I Et Country-Band
TTITLE10=Haukelitopp
TTITLE11=Hallingdøl
TTITLE12=Søndag Morgen
TTITLE13=Den Fredløse
TTITLE14=Minus 40 I Kautokeino
TTITLE15=Send En Engel
TTITLE16=Langs Norskekysten
TTITLE17=Skilsmisseferd I Hardanger
EXTD=
EXTT0=
EXTT1=
EXTT2=
EXTT3=
EXTT4=
EXTT5=
EXTT6=
EXTT7=
EXTT8=
EXTT9=
EXTT10=
EXTT11=
EXTT12=
EXTT13=
EXTT14=
EXTT15=
EXTT16=
EXTT17=
PLAYORDER=
